HIERARCHY
ROOT hip
{
	OFFSET 0.000000 0.000000 0.000000 
	CHANNELS 6 Xposition Yposition Zposition Xrotation Zrotation Yrotation
	JOINT abdomen
	{
		OFFSET 0.000000 3.402643 0.000000 
		CHANNELS 3 Xrotation Zrotation Yrotation
		JOINT chest
		{
			OFFSET 0.000000 8.438565 -0.680529 
			CHANNELS 3 Xrotation Zrotation Yrotation
			JOINT neck
			{
				OFFSET 0.000000 10.207942 -0.272212 
				CHANNELS 3 Xrotation Zrotation Yrotation
				JOINT head
				{
					OFFSET 0.000000 3.130431 0.000000 
					CHANNELS 3 Xrotation Zrotation Yrotation
					End Site
					{
						OFFSET 0.000000 3.130435 0.000000 
					}
				}
			}
			JOINT lCollar
			{
				OFFSET 3.470700 6.669187 -0.816635 
				CHANNELS 3 Yrotation Zrotation Xrotation
				JOINT lShldr
				{
					OFFSET 3.198488 0.000000 0.000000 
					CHANNELS 3 Zrotation Yrotation Xrotation
					JOINT lForeArm
					{
						OFFSET 10.139888 0.000000 0.000000 
						CHANNELS 3 Yrotation Zrotation Xrotation
						JOINT lHand
						{
							OFFSET 8.370511 0.000000 0.000000 
							CHANNELS 3 Zrotation Yrotation Xrotation
							End Site
							{
								OFFSET 4.083176 0.000000 0.000000 
							}
						}
					}
				}
			}
			JOINT rCollar
			{
				OFFSET -3.470700 6.669187 -0.816635 
				CHANNELS 3 Yrotation Zrotation Xrotation
				JOINT rShldr
				{
					OFFSET -3.198488 0.000000 0.000000 
					CHANNELS 3 Zrotation Yrotation Xrotation
					JOINT rForeArm
					{
						OFFSET -10.139888 0.000000 0.000000 
						CHANNELS 3 Yrotation Zrotation Xrotation
						JOINT rHand
						{
							OFFSET -8.370511 0.000000 0.000000 
							CHANNELS 3 Zrotation Yrotation Xrotation
							End Site
							{
								OFFSET -4.083176 0.000000 0.000000 
							}
						}
					}
				}
			}
		}
	}
	JOINT lThigh
	{
		OFFSET 5.308129 -1.633274 1.361059 
		CHANNELS 3 Xrotation Zrotation Yrotation
		JOINT lShin
		{
			OFFSET -2.041588 -20.007561 0.000000 
			CHANNELS 3 Xrotation Zrotation Yrotation
			JOINT lFoot
			{
				OFFSET 0.000000 -19.190928 -1.224953 
				CHANNELS 3 Xrotation Yrotation Zrotation
				End Site
				{
					OFFSET 0.000000 -2.449906 4.627600 
				}
			}
		}
	}
	JOINT rThigh
	{
		OFFSET -5.308129 -1.633274 1.361059 
		CHANNELS 3 Xrotation Zrotation Yrotation
		JOINT rShin
		{
			OFFSET 2.041588 -20.007561 0.000000 
			CHANNELS 3 Xrotation Zrotation Yrotation
			JOINT rFoot
			{
				OFFSET 0.000000 -19.190928 -1.224953 
				CHANNELS 3 Xrotation Yrotation Zrotation
				End Site
				{
					OFFSET 0.000000 -2.449906 4.627600 
				}
			}
		}
	}
}
MOTION
Frames: 9
Frame Time: 0.040000
-3.071037 41.424007 0.293617 20.250299 -5.015090 0.072494 0.000000 0.000000 0.000000 0.000000 0.000000 0.000000 0.000000 0.000000 0.000000 -28.906300 3.539750 -0.969776 2.394565 18.680103 -23.308407 -75.560997 7.216776 4.481933 -58.224091 -0.515067 -10.081933 5.997053 -0.184081 0.176151 -0.131901 8.211259 -24.149910 48.160969 -15.185559 -12.917259 54.772541 17.181625 13.610649 -5.969490 0.173112 0.175734 -67.980728 17.175034 -16.388020 82.060532 -2.836860 -8.293085 -31.229765 -2.141101 -12.648454 -70.779129 -0.765753 16.072300 78.426208 16.703758 11.662971 -23.866222 -23.325695 -1.831821 
-3.084042 39.841553 0.181385 20.250299 -5.015090 0.072494 0.000000 0.000000 0.000000 0.000000 0.000000 0.000000 0.000000 0.000000 0.000000 -28.906300 3.539750 -0.969776 2.432402 19.104509 -23.300077 -81.016296 11.291543 2.189435 -59.754986 0.328724 -10.128964 6.038846 -0.200713 0.176784 -6.757069 13.665671 -23.086241 47.461441 -13.022050 -11.885992 47.624435 19.881258 14.496104 -5.969490 0.173112 0.175734 -72.560432 16.177734 -17.294359 87.319031 -1.456239 -8.742606 -34.058174 1.410992 -12.581129 -74.740318 -1.056071 15.752696 84.178070 17.394840 13.457360 -28.337118 -22.453506 -3.498518 
-3.095699 38.593628 0.080788 20.250301 -5.015090 0.072494 0.000000 0.000000 0.000000 0.000000 0.000000 0.000000 0.000000 0.000000 0.000000 -28.906301 3.539750 -0.969776 2.441836 19.210327 -23.298002 -85.949364 15.036755 0.117038 -60.722103 0.904905 -10.391193 6.049267 -0.204860 0.176942 -12.695348 18.554581 -22.132853 47.055981 -11.184517 -11.085090 40.401752 22.325191 15.247304 -5.969491 0.173112 0.175734 -76.430069 15.169807 -18.081114 91.485428 -0.228346 -9.106320 -36.284348 4.614475 -12.499297 -77.900917 -1.415536 15.496474 88.692116 18.062635 14.910489 -32.107601 -21.429296 -4.925549 
-3.102025 38.455009 0.026200 20.250299 -5.015090 0.072494 0.000000 0.000000 0.000000 0.000000 0.000000 0.000000 0.000000 0.000000 0.000000 -28.906300 3.539750 -0.969776 2.369610 18.400200 -23.313900 -88.763199 17.362600 -1.063080 -59.967098 0.648461 -11.228800 5.969490 -0.173112 0.175734 -15.917700 21.207500 -21.615499 47.535900 -10.508600 -11.040500 33.905300 23.727800 15.520800 -5.969490 0.173112 0.175734 -77.786598 14.262600 -18.427099 92.018303 0.407669 -9.179830 -36.516102 6.414950 -12.387000 -78.384102 -1.924160 15.453000 89.114899 18.577801 15.208600 -33.405201 -20.107500 -5.488660 
-3.100205 39.963692 0.041889 20.250296 -5.015089 0.072494 0.000000 0.000000 0.000000 0.000000 0.000000 0.000000 0.000000 0.000000 0.000000 -28.906296 3.539749 -0.969776 2.179419 16.266926 -23.355764 -88.328056 17.494743 -0.875418 -56.693638 -0.829982 -12.884427 5.759417 -0.089511 0.172553 -14.991593 20.445047 -21.764179 49.306965 -11.578896 -12.117016 28.743668 23.533152 15.076367 -5.969488 0.173112 0.175734 -75.369522 13.540761 -18.106915 87.152382 0.142266 -8.820906 -33.786919 6.066954 -12.234113 -74.885460 -2.633179 15.726128 83.465836 18.846464 13.785386 -30.991087 -18.398188 -4.750656 
-3.092419 42.654827 0.109084 20.250298 -5.015090 0.072494 0.000000 0.000000 0.000000 0.000000 0.000000 0.000000 0.000000 0.000000 0.000000 -28.906300 3.539750 -0.969776 1.906342 13.203952 -23.415882 -85.505402 16.005550 0.317270 -51.633472 -3.177771 -15.107500 5.457793 0.030523 0.167986 -11.025035 17.179430 -22.401011 51.992035 -13.914190 -13.997206 24.679314 22.164333 14.111954 -5.969488 0.173112 0.175734 -70.221069 12.971416 -17.302231 78.409409 -0.782400 -8.150767 -28.932705 4.141450 -12.054614 -68.525375 -3.474597 16.226891 73.460220 18.927418 11.123236 -25.891171 -16.440228 -3.068801 
-3.081620 45.904686 0.202282 20.250299 -5.015090 0.072494 0.000000 0.000000 0.000000 0.000000 0.000000 0.000000 0.000000 0.000000 0.000000 -28.906303 3.539750 -0.969776 1.596912 9.733225 -23.484005 -81.467674 13.676978 2.021291 -45.762161 -5.924037 -17.567671 5.116016 0.166537 0.162811 -5.523501 12.650090 -23.284285 55.088833 -16.865309 -16.255434 21.351925 20.197302 12.894551 -5.969489 0.173112 0.175734 -63.746452 12.504640 -16.258694 67.831795 -2.037743 -7.332307 -23.074989 1.415128 -11.866500 -60.808167 -4.360589 16.835787 61.399120 18.902752 7.870433 -19.488470 -14.411131 -0.925444 
-3.070227 49.187157 0.300614 20.250299 -5.015090 0.072494 0.000000 0.000000 0.000000 0.000000 0.000000 0.000000 0.000000 0.000000 0.000000 -28.906301 3.539750 -0.969776 1.291463 6.307153 -23.551250 -77.170273 11.140324 3.834285 -39.915333 -8.666874 -19.974342 4.778636 0.300801 0.157702 0.281105 7.871234 -24.216217 58.165932 -19.891678 -18.532032 18.541849 18.101130 11.646549 -5.969489 0.173112 0.175734 -57.117218 12.110090 -15.179670 57.141235 -3.354007 -6.502430 -17.159983 -1.478275 -11.686479 -53.000729 -5.210142 17.452244 49.224571 18.835186 4.571762 -12.936514 -12.478500 1.278555 
-3.060644 51.919071 0.383314 20.250299 -5.015090 0.072494 0.000000 0.000000 0.000000 0.000000 0.000000 0.000000 0.000000 0.000000 0.000000 -28.906300 3.539750 -0.969776 1.038700 3.472040 -23.606899 -73.548698 8.991240 5.362040 -35.066299 -10.943300 -21.961300 4.499450 0.411906 0.153475 5.162970 3.852060 -25.000000 60.716499 -22.419800 -20.425900 16.316099 16.334101 10.604100 -5.969490 0.173112 0.175734 -51.581501 11.797500 -14.276500 48.242401 -4.459410 -5.811090 -12.237400 -3.915040 -11.538700 -46.500198 -5.907900 17.965599 39.093601 18.770201 1.823660 -7.466070 -10.894000 3.120910 
